<svg width="18" height="12" viewBox="0 0 18 12" fill="none" xmlns="http://www.w3.org/2000/svg">
<path fill-rule="evenodd" clip-rule="evenodd" d="M0.75 0.25C0.335786 0.25 0 0.585786 0 1C0 1.41421 0.335786 1.75 0.75 1.75H16.75C17.1642 1.75 17.5 1.41421 17.5 1C17.5 0.585786 17.1642 0.25 16.75 0.25H0.75ZM0 6C0 5.58579 0.335786 5.25 0.75 5.25H16.75C17.1642 5.25 17.5 5.58579 17.5 6C17.5 6.41421 17.1642 6.75 16.75 6.75H0.75C0.335786 6.75 0 6.41421 0 6ZM0 11C0 10.5858 0.335786 10.25 0.75 10.25H16.75C17.1642 10.25 17.5 10.5858 17.5 11C17.5 11.4142 17.1642 11.75 16.75 11.75H0.75C0.335786 11.75 0 11.4142 0 11Z" fill="white"/>
</svg>
